<svg id="visual" viewBox="0 0 1500 900" width="1500" height="900" xmlns="http://www.w3.org/2000/svg" xmlns:xlink="http://www.w3.org/1999/xlink" version="1.1"><rect width="1500" height="900" fill="#001829"></rect><g><g transform="translate(23 379)"><path d="M0 -214L185.3 -107L185.3 107L0 214L-185.3 107L-185.3 -107Z" fill="#297EA6"></path></g><g transform="translate(985 303)"><path d="M0 -87L75.3 -43.5L75.3 43.5L0 87L-75.3 43.5L-75.3 -43.5Z" fill="#297EA6"></path></g><g transform="translate(646 19)"><path d="M0 -54L46.8 -27L46.8 27L0 54L-46.8 27L-46.8 -27Z" fill="#297EA6"></path></g><g transform="translate(388 767)"><path d="M0 -154L133.4 -77L133.4 77L0 154L-133.4 77L-133.4 -77Z" fill="#297EA6"></path></g><g transform="translate(1412 564)"><path d="M0 -130L112.6 -65L112.6 65L0 130L-112.6 65L-112.6 -65Z" fill="#297EA6"></path></g><g transform="translate(1472 80)"><path d="M0 -88L76.2 -44L76.2 44L0 88L-76.2 44L-76.2 -44Z" fill="#297EA6"></path></g></g></svg>